<svg xmlns="http://www.w3.org/2000/svg" width="40.039" height="40.039" viewBox="0 0 40.039 40.039">
  <g id="logo" transform="translate(-38.051 -38.051)">
    <g id="Grupo_35" data-name="Grupo 35" transform="translate(39.401 39.401)">
      <circle id="Elipse_8" data-name="Elipse 8" cx="18.669" cy="18.669" r="18.669" fill="#6ed98c"/>
    </g>
    <g id="Grupo_36" data-name="Grupo 36" transform="translate(45.263 45.263)">
      <circle id="Elipse_9" data-name="Elipse 9" cx="12.807" cy="12.807" r="12.807" fill="#fff"/>
    </g>
    <g id="Grupo_51" data-name="Grupo 51" transform="translate(38.051 38.051)">
      <g id="Grupo_44" data-name="Grupo 44">
        <g id="Grupo_40" data-name="Grupo 40" transform="translate(13.979 10.905)">
          <g id="Grupo_39" data-name="Grupo 39">
            <path id="Caminho_85" data-name="Caminho 85" d="M63.261,69.015v1.4H61.27V68.949a8.972,8.972,0,0,1-5.1-2.341l1.576-1.948a7.478,7.478,0,0,0,3.523,1.882V62.274c-2.692-.7-4.508-1.663-4.508-4.246,0-2.363,1.816-4.18,4.508-4.508V52.186h1.991v1.356a8.143,8.143,0,0,1,4.6,2.035l-1.487,2.014a7.165,7.165,0,0,0-3.108-1.642v4.114c3,.679,4.99,1.707,4.99,4.377C68.251,66.957,66.435,68.8,63.261,69.015ZM61.27,59.538V55.906a2.066,2.066,0,0,0-1.751,1.882C59.519,58.663,60.089,59.123,61.27,59.538ZM65.515,64.7c0-1.007-.7-1.467-2.254-1.926v3.9C64.75,66.5,65.515,65.666,65.515,64.7Z" transform="translate(-56.171 -52.186)"/>
          </g>
        </g>
        <g id="Grupo_41" data-name="Grupo 41">
          <path id="Caminho_86" data-name="Caminho 86" d="M58.071,78.09A20.025,20.025,0,0,1,40.563,48.354a1.35,1.35,0,0,1,2.359,1.312,17.322,17.322,0,1,0,15.148-8.915,17.576,17.576,0,0,0-2.331.155,1.35,1.35,0,0,1-.358-2.676,20.344,20.344,0,0,1,2.689-.179,20.02,20.02,0,0,1,0,40.039Z" transform="translate(-38.051 -38.051)"/>
        </g>
        <g id="Grupo_42" data-name="Grupo 42" transform="translate(6.539 2.504)">
          <path id="Caminho_87" data-name="Caminho 87" d="M47.877,45.971A1.35,1.35,0,0,1,47,43.6a20.052,20.052,0,0,1,2.986-2.117,1.35,1.35,0,0,1,1.353,2.337,17.382,17.382,0,0,0-2.585,1.832A1.344,1.344,0,0,1,47.877,45.971Z" transform="translate(-46.526 -41.297)"/>
        </g>
        <g id="Grupo_43" data-name="Grupo 43" transform="translate(5.862 5.862)">
          <path id="Caminho_88" data-name="Caminho 88" d="M59.807,73.964A14.158,14.158,0,1,1,73.964,59.807,14.175,14.175,0,0,1,59.807,73.964Zm0-25.615A11.457,11.457,0,1,0,71.264,59.807,11.47,11.47,0,0,0,59.807,48.349Z" transform="translate(-45.649 -45.649)"/>
        </g>
      </g>
    </g>
  </g>
</svg>
