<svg xmlns="http://www.w3.org/2000/svg" width="32.75" height="44" viewBox="0 0 32.75 44">
  <g id="money" transform="translate(-19.755 -4.557)">
    <g id="Grupo_27" data-name="Grupo 27" transform="translate(20.403 17.25)">
      <path id="Caminho_75" data-name="Caminho 75" d="M42.217,38.852s10.172,5.554,10.729,17.36a12.162,12.162,0,0,1-8.308,12.2,24,24,0,0,1-7.405,1.1,24,24,0,0,1-7.405-1.1,12.162,12.162,0,0,1-8.308-12.2c.558-11.806,10.729-17.36,10.729-17.36Z" transform="translate(-21.505 -38.852)" fill="#6ed98c"/>
    </g>
    <g id="Grupo_28" data-name="Grupo 28" transform="translate(26.275 22.724)">
      <circle id="Elipse_6" data-name="Elipse 6" cx="8.956" cy="8.956" r="8.956" transform="translate(0 17.811) rotate(-83.909)" fill="#fff"/>
    </g>
    <g id="Grupo_29" data-name="Grupo 29" transform="translate(29.813 26.262)">
      <circle id="Elipse_7" data-name="Elipse 7" cx="6.144" cy="6.144" r="6.144" transform="matrix(1, -0.029, 0.029, 1, 0, 0.353)" fill="#fff"/>
    </g>
    <g id="Grupo_30" data-name="Grupo 30" transform="translate(28.005 5.205)">
      <path id="Caminho_76" data-name="Caminho 76" d="M55.155,15.539,58.3,8.49s-2.782-2.183-8.126-2.183S42.045,8.49,42.045,8.49l3.141,7.049Z" transform="translate(-42.045 -6.307)" fill="#6ed98c"/>
    </g>
    <g id="Grupo_32" data-name="Grupo 32" transform="translate(19.755 4.557)">
      <path id="Caminho_77" data-name="Caminho 77" d="M56.927,74.442l-.756.935A4.3,4.3,0,0,0,58.617,76.5v.7h.955v-.672c1.523-.1,2.394-.987,2.394-2.194,0-1.281-.955-1.774-2.394-2.1V70.264a3.431,3.431,0,0,1,1.491.787l.714-.966a3.9,3.9,0,0,0-2.2-.976v-.651h-.955v.64a2.241,2.241,0,0,0-2.163,2.163c0,1.239.871,1.7,2.163,2.036v2.047A3.591,3.591,0,0,1,56.927,74.442Zm2.645-.9c.746.221,1.081.441,1.081.924,0,.462-.367.861-1.081.945Zm-1.795-2.393a.992.992,0,0,1,.84-.9v1.743C58.05,71.786,57.777,71.565,57.777,71.146Z" transform="translate(-42.693 -44.808)"/>
      <path id="Caminho_78" data-name="Caminho 78" d="M47.655,73.531a9.6,9.6,0,1,0-9.6-9.6A9.614,9.614,0,0,0,47.655,73.531Zm0-17.912a8.308,8.308,0,1,1-8.308,8.309A8.318,8.318,0,0,1,47.655,55.618Z" transform="translate(-31.28 -35.904)"/>
      <path id="Caminho_79" data-name="Caminho 79" d="M52.441,75.505a6.792,6.792,0,1,0-6.792-6.791A6.8,6.8,0,0,0,52.441,75.505Zm0-12.288a5.5,5.5,0,1,1-5.5,5.5A5.5,5.5,0,0,1,52.441,63.217Z" transform="translate(-36.066 -40.691)"/>
      <path id="Caminho_80" data-name="Caminho 80" d="M29.623,54.606a.647.647,0,0,0,.9-.172c.28-.413.582-.826.9-1.226a.648.648,0,1,0-1.019-.8c-.333.424-.652.861-.949,1.3A.647.647,0,0,0,29.623,54.606Z" transform="translate(-25.792 -34.542)"/>
      <path id="Caminho_81" data-name="Caminho 81" d="M49.6,79.464a.648.648,0,0,0-.91.105A11.194,11.194,0,0,1,43.337,83.3a23.486,23.486,0,0,1-7.206,1.068A23.484,23.484,0,0,1,28.924,83.3a11.522,11.522,0,0,1-7.86-11.553,19.468,19.468,0,0,1,1.811-7.362.648.648,0,0,0-1.174-.549,20.757,20.757,0,0,0-1.931,7.85,12.82,12.82,0,0,0,8.757,12.847,24.761,24.761,0,0,0,7.6,1.13,24.765,24.765,0,0,0,7.6-1.13,12.491,12.491,0,0,0,5.973-4.154A.648.648,0,0,0,49.6,79.464Z" transform="translate(-19.755 -41.658)"/>
      <path id="Caminho_82" data-name="Caminho 82" d="M64.1,34.579c-.51-10.8-8.936-16.586-10.728-17.7V14.575l3.085-6.924a.648.648,0,0,0-.192-.773c-.121-.095-3.022-2.321-8.525-2.321s-8.4,2.226-8.525,2.321a.648.648,0,0,0-.192.773l3.086,6.924v2.3a23.045,23.045,0,0,0-3.721,2.9.648.648,0,0,0,.892.94,21.5,21.5,0,0,1,3.65-2.818h9.621c1.186.7,9.756,6.162,10.256,16.743a11.852,11.852,0,0,1-.882,5.063.648.648,0,0,0,1.2.5A13.157,13.157,0,0,0,64.1,34.579ZM47.739,5.852a14.349,14.349,0,0,1,7.31,1.773L52.3,13.789H43.175L40.427,7.623A14.246,14.246,0,0,1,47.739,5.852ZM52.076,16.6H43.4V15.085h8.673Z" transform="translate(-31.364 -4.557)"/>
    </g>
  </g>
</svg>
